
        <svg xmlns="http://www.w3.org/2000/svg" xmlns:xlink="http://www.w3.org/1999/xlink" version="1.1" width="3202.0739409538464" 
        height="3202.1032862140496" viewBox="0 0 3202.0739409538464 3202.1032862140496">
			
			<g transform="scale(10.105164310702474) translate(10, 10)">
				<defs id="SvgjsDefs1416"></defs><g id="SvgjsG1417" featureKey="rootContainer" transform="matrix(1.4527912655704076,0,0,1.4527912655704076,0,0)" fill="#f65003"><path xmlns="http://www.w3.org/2000/svg" d="M102.174 199.588c53.8 0 97.413-43.613 97.413-97.413S155.974 4.762 102.174 4.762 4.761 48.375 4.761 102.175s43.614 97.413 97.413 97.413zm0-189.826c50.957 0 92.413 41.457 92.413 92.413s-41.456 92.413-92.413 92.413c-50.957 0-92.413-41.457-92.413-92.413S51.218 9.762 102.174 9.762z"></path><path xmlns="http://www.w3.org/2000/svg" d="M102.174 191.585c49.38 0 89.41-40.03 89.41-89.41s-40.03-89.41-89.41-89.41c-49.38 0-89.41 40.03-89.41 89.41s40.03 89.41 89.41 89.41zm0-176.82c48.198 0 87.41 39.212 87.41 87.41s-39.212 87.41-87.41 87.41c-48.198 0-87.41-39.212-87.41-87.41s39.212-87.41 87.41-87.41z"></path><path xmlns="http://www.w3.org/2000/svg" d="M102.174 204.35c56.339 0 102.174-45.835 102.174-102.175S158.513 0 102.174 0C45.835 0 0 45.835 0 102.175S45.835 204.35 102.174 204.35zm0-202.35c55.236 0 100.174 44.938 100.174 100.175S157.411 202.35 102.174 202.35C46.938 202.35 2 157.411 2 102.175S46.938 2 102.174 2z"></path></g><g id="SvgjsG1418" featureKey="symbolFeature-0" transform="matrix(0.11015854924202796,0,0,0.11015854924202796,92.92169104803112,51.95846570871401)" fill="#088ee8"><g xmlns="http://www.w3.org/2000/svg"><g><path d="M953.1,576.9c-0.9-11.3-3.7-23.6-9.4-33.3c-28.8-49.2-58.9-97.6-88.3-146.4c-6.7-11.2-15.9-16.6-29-16.5    c-30.7,0.3-61.4,0-92.1,0.1c-14.5,0-19.2,4.8-19.2,19.7c0,77.8,0,155.6,0,233.5c0,16.7,7.8,22.8,24.2,18.9    c11.3-52,40.1-78,84.5-76.2c40.9,1.7,70.3,31,76.4,77.5c11.8,0,23.2,0.1,34.6,0c13.3-0.1,18.5-5.3,18.6-18.7    C953.5,616,954.6,596.3,953.1,576.9z M858,502c-33.4-9.1-66.6-18.7-100.1-27.4c-9.5-2.5-13.4-7.2-13-16.9    c0.5-12,0.4-24.1,0.1-36.2c-0.2-8,3.3-11.1,11.1-11c20.7,0.2,41.5-0.3,62.2,0.4c4.8,0.2,11.6,3,14,6.8    c18.2,28.7,35.6,58,53.1,87.1c0.4,0.7,0.3,1.7,0.7,4.3C876.2,506.6,867.1,504.5,858,502z"></path></g><g><path d="M406.6,709.1c-31.7,0-57.3-24.5-57.5-54.9c-0.1-30.3,25.6-55.3,57.1-55.4c32.2-0.1,57.9,24.6,57.8,55.5    C464,684.8,438.5,709.1,406.6,709.1z"></path></g><g><path d="M819.4,709.1c-31.6-0.2-57.3-25.1-57.1-55.3c0.2-30.8,26.4-55.3,58.5-55c31.5,0.3,56.7,25.2,56.5,55.9    C877.1,685.1,851.3,709.3,819.4,709.1z"></path></g><g><path d="M692.3,608.6c0.8,24.2-17.9,44.1-42.3,44.6c-33.8,0.6-67.5,0.2-101.3,0.3c-20.4,0-40.8,0-61,0    c-2.2-10-4.2-19.2-6.4-29.5c3.1-0.2,6.4-0.4,9.6-0.5c50.8,0,101.6-0.2,152.4,0c9.2,0,16.5-1.9,19.8-11.6c0.5-1.5,2.9-3.2,4.5-3.2    C675.7,608.4,684,608.6,692.3,608.6z"></path></g><g><path d="M489.5,320.6c0-9.9,0-18.8,0-28.5c24.9,0,49.3,0,74.3,0c0,9.6,0,18.7,0,28.5    C539,320.6,514.7,320.6,489.5,320.6z"></path></g><g><path d="M324.2,292.5c0,9.1,0,18.2,0,28.7c-6.8,0-13.6,0.3-20.2-0.1c-11.4-0.7-20.5,1.8-22.7,14.8    c-9.9,0-19.1,0-28.3,0C252.8,302.3,279,285.3,324.2,292.5z"></path></g><g><path d="M369.9,291.7c24.9,0,48.9,0,73.7,0c0,9.7,0,19.1,0,28.9c-24.7,0-48.9,0-73.7,0    C369.9,311,369.9,301.8,369.9,291.7z"></path></g><g><path d="M689.7,319.3c-9.5,3.8-18.1,7.3-26.6,10.7c0.1-1,0.3-2.1,0.4-3.1c-7.3-1.9-14.4-4.8-21.8-5.5    c-10.4-0.9-20.9-0.2-32-0.2c0-10.1,0-19.4,0-29c16.3,0,32.4-1.5,48.1,0.4C672.7,294.4,683.2,304.4,689.7,319.3z"></path></g><g><path d="M663.6,443.6c0-24.9,0-49,0-73.6c9.7,0,18.8,0,28.7,0c0,24.3,0,48.6,0,73.6    C683,443.6,673.6,443.6,663.6,443.6z"></path></g><g><path d="M663.7,489.5c9.9,0,19,0,28.7,0c0,24.8,0,49.1,0,73.8c-9.7,0-18.9,0-28.7,0    C663.7,538.9,663.7,514.6,663.7,489.5z"></path></g><g><path d="M326.2,652.5c-36.2,2.8-57.6,2.1-70.5-27c8.5-3.5,16.9-7,25.7-10.7c14.3,16.2,33.4,4.8,50.4,9.8    C330,633.7,328.1,643.2,326.2,652.5z"></path></g><g><path d="M294.8,383.9H60.1c-7.7,0-14-6.2-14-14s6.2-14,14-14h234.7c7.7,0,14,6.2,14,14S302.5,383.9,294.8,383.9z"></path></g><g><path d="M416.5,450.2H60.1c-7.7,0-14-6.2-14-14s6.2-14,14-14h356.4c7.7,0,14,6.2,14,14S424.2,450.2,416.5,450.2z"></path></g><g><path d="M292.9,516.4H60.1c-7.7,0-14-6.2-14-14c0-7.7,6.2-14,14-14h232.8c7.7,0,14,6.2,14,14    C306.9,510.2,300.6,516.4,292.9,516.4z"></path></g><g><path d="M416.5,582.7H60.1c-7.7,0-14-6.2-14-14s6.2-14,14-14h356.4c7.7,0,14,6.2,14,14S424.2,582.7,416.5,582.7z"></path></g></g></g><g id="SvgjsG1419" featureKey="nameFeature-0" transform="matrix(1.6573478473367627,0,0,1.6573478473367627,49.68530311989892,126.39936703326131)" fill="#111111"><path d="M14.88 40 c-2.4 0 -4.6 -0.56 -6.52 -1.68 c-1.96 -1.12 -3.52 -2.72 -4.68 -4.64 c-1.12 -1.96 -1.68 -4.2 -1.68 -6.6 c0 -2.36 0.56 -4.56 1.68 -6.52 c1.16 -1.96 2.68 -3.52 4.64 -4.64 s4.16 -1.68 6.56 -1.68 c2.36 0 4.56 0.56 6.52 1.68 s3.52 2.68 4.64 4.64 c1.16 1.96 1.72 4.16 1.72 6.52 c0 2.4 -0.56 4.6 -1.72 6.56 c-1.12 1.96 -2.68 3.52 -4.64 4.68 c-1.96 1.12 -4.16 1.68 -6.52 1.68 z M14.96 34.24 c1.16 0 2.24 -0.32 3.2 -0.92 c1 -0.64 1.8 -1.48 2.36 -2.6 c0.6 -1.08 0.88 -2.32 0.88 -3.64 c0 -1.28 -0.28 -2.52 -0.88 -3.6 c-0.56 -1.08 -1.36 -1.92 -2.36 -2.56 c-0.96 -0.6 -2.04 -0.92 -3.2 -0.92 c-1.2 0 -2.28 0.32 -3.28 0.92 c-1.04 0.64 -1.84 1.48 -2.44 2.56 c-0.6 1.12 -0.88 2.32 -0.88 3.6 c0 1.32 0.28 2.56 0.88 3.64 c0.64 1.08 1.44 1.96 2.44 2.56 c1 0.64 2.08 0.96 3.28 0.96 z M40.38700000000001 40 c-0.28 0 -0.52 -0.24 -0.52 -0.52 l0 -23.96 c0 -0.28 0.24 -0.52 0.52 -0.52 l5.76 0 c0.2 0 0.4 0.12 0.48 0.28 l6 14.8 l5.96 -14.8 c0.08 -0.16 0.28 -0.28 0.48 -0.28 l5.76 0 c0.28 0 0.52 0.24 0.52 0.52 l0 23.96 c0 0.28 -0.24 0.52 -0.52 0.52 l-4.68 0 c-0.28 0 -0.52 -0.24 -0.52 -0.52 l0 -12.88 l-4.88 12.4 c-0.08 0.16 -0.28 0.28 -0.44 0.28 l-3.36 0 c-0.2 0 -0.4 -0.12 -0.48 -0.28 l-4.92 -12.4 l0 12.88 c0 0.28 -0.24 0.52 -0.52 0.52 l-4.64 0 z M77.974 40 c-0.28 0 -0.52 -0.24 -0.52 -0.52 l0 -23.96 c0 -0.28 0.24 -0.52 0.52 -0.52 l4.72 0 c0.16 0 0.32 0.08 0.44 0.2 l9.2 14.2 l0 -13.88 c0 -0.28 0.24 -0.52 0.52 -0.52 l4.92 0 c0.28 0 0.52 0.24 0.52 0.52 l0 23.96 c0 0.28 -0.24 0.52 -0.52 0.52 l-4.72 0 c-0.16 0 -0.32 -0.08 -0.44 -0.2 l-9.16 -14.12 l0 13.8 c0 0.28 -0.24 0.52 -0.52 0.52 l-4.96 0 z M110.921 40 c-0.28 0 -0.52 -0.24 -0.52 -0.52 l0 -23.96 c0 -0.28 0.24 -0.52 0.52 -0.52 l5.2 0 c0.28 0 0.52 0.24 0.52 0.52 l0 23.96 c0 0.28 -0.24 0.52 -0.52 0.52 l-5.2 0 z"></path></g><g id="SvgjsG1420" featureKey="sloganFeature-0" transform="matrix(0.8139104491724768,0,0,0.8139104491724768,59.186089550827525,197.1072885342806)" fill="#FFFFFF"><path d="M1.26 20 c-0.14 0 -0.26 -0.12 -0.26 -0.26 l0 -11.98 c0 -0.14 0.12 -0.26 0.26 -0.26 l2.36 0 c0.08 0 0.16 0.04 0.22 0.1 l4.6 7.1 l0 -6.94 c0 -0.14 0.12 -0.26 0.26 -0.26 l2.46 0 c0.14 0 0.26 0.12 0.26 0.26 l0 11.98 c0 0.14 -0.12 0.26 -0.26 0.26 l-2.36 0 c-0.08 0 -0.16 -0.04 -0.22 -0.1 l-4.58 -7.06 l0 6.9 c0 0.14 -0.12 0.26 -0.26 0.26 l-2.48 0 z M13.42 20 l0 -11.98 c0 -0.5 0.1 -0.6 0.26 -0.6 l8.76 0 c0.14 0 0.26 0.1 0.26 0.24 l0 2.26 c0 0.14 -0.12 0.26 -0.26 0.26 l-5.92 0 l0 2.08 l3.74 0 c0.14 0 0.26 0.12 0.26 0.26 l0 2.24 c0 0.14 -0.12 0.26 -0.26 0.26 l-3.74 0 l0 2.14 l5.9 0 c0.14 0 0.26 0.12 0.26 0.26 l0 2.24 c0 0.14 -0.12 0.26 -0.26 0.26 l-8.74 0 c-0.16 0 -0.26 -0.12 -0.26 0.08 z M24.939999999999998 20 c-0.1 0 -0.18 -0.06 -0.22 -0.14 s-0.04 -0.18 0 -0.26 l3.36 -5.98 l-3.08 -5.72 c-0.04 -0.08 -0.04 -0.18 0 -0.26 s0.12 -0.14 0.22 -0.14 l2.82 0 c0.1 0 0.18 0.04 0.22 0.12 l1.68 3.16 l1.68 -3.16 c0.04 -0.08 0.12 -0.12 0.22 -0.12 l2.88 0 c0.08 0 0.18 0.06 0.22 0.14 s0.04 0.18 -0.02 0.26 l-3.04 5.6 l3.38 6.1 c0.04 0.08 0.06 0.18 0 0.26 c-0.04 0.08 -0.12 0.14 -0.22 0.14 l-2.9 0 c-0.1 0 -0.18 -0.04 -0.22 -0.12 l-1.98 -3.5 l-1.94 3.5 c-0.06 0.08 -0.14 0.12 -0.22 0.12 l-2.84 0 z M40.54 20 c-0.14 0 -0.24 -0.12 -0.24 -0.26 l0 -9.44 l-2.74 0 c-0.14 0 -0.26 -0.1 -0.26 -0.24 l0 -2.3 c0 -0.14 0.12 -0.26 0.26 -0.26 l8.58 0 c0.16 0 0.26 0.12 0.26 0.26 l0 2.3 c0 0.14 -0.1 0.24 -0.26 0.24 l-2.74 0 l0 9.44 c0 0.14 -0.12 0.26 -0.26 0.26 l-2.6 0 z M54.059999999999995 20 c-0.14 0 -0.26 -0.12 -0.26 -0.26 l0 -11.98 c0 -0.14 0.12 -0.26 0.26 -0.26 l2.6 0 c0.14 0 0.26 0.12 0.26 0.26 l0 9.36 l4.5 0 c0.14 0 0.26 0.12 0.26 0.26 l0 2.36 c0 0.14 -0.12 0.26 -0.26 0.26 l-7.36 0 z M63.68 20 l0 -11.98 c0 -0.5 0.1 -0.6 0.26 -0.6 l8.76 0 c0.14 0 0.26 0.1 0.26 0.24 l0 2.26 c0 0.14 -0.12 0.26 -0.26 0.26 l-5.92 0 l0 2.08 l3.74 0 c0.14 0 0.26 0.12 0.26 0.26 l0 2.24 c0 0.14 -0.12 0.26 -0.26 0.26 l-3.74 0 l0 2.14 l5.9 0 c0.14 0 0.26 0.12 0.26 0.26 l0 2.24 c0 0.14 -0.12 0.26 -0.26 0.26 l-8.74 0 c-0.16 0 -0.26 -0.12 -0.26 0.08 z M79.22 20 c-0.1 0 -0.2 -0.06 -0.24 -0.16 l-4 -12 c-0.04 -0.08 -0.02 -0.16 0.02 -0.24 c0.06 -0.06 0.14 -0.1 0.22 -0.1 l2.8 0 c0.1 0 0.2 0.06 0.24 0.18 l2.38 7.82 l2.4 -7.82 c0.04 -0.12 0.14 -0.18 0.24 -0.18 l2.68 0 c0.08 0 0.16 0.04 0.22 0.1 c0.04 0.08 0.06 0.16 0.02 0.24 l-4.06 12 c-0.04 0.1 -0.12 0.16 -0.24 0.16 l-2.68 0 z M88.22 20 l0 -11.98 c0 -0.5 0.1 -0.6 0.26 -0.6 l8.76 0 c0.14 0 0.26 0.1 0.26 0.24 l0 2.26 c0 0.14 -0.12 0.26 -0.26 0.26 l-5.92 0 l0 2.08 l3.74 0 c0.14 0 0.26 0.12 0.26 0.26 l0 2.24 c0 0.14 -0.12 0.26 -0.26 0.26 l-3.74 0 l0 2.14 l5.9 0 c0.14 0 0.26 0.12 0.26 0.26 l0 2.24 c0 0.14 -0.12 0.26 -0.26 0.26 l-8.74 0 c-0.16 0 -0.26 -0.12 -0.26 0.08 z M99.76 20 c-0.14 0 -0.26 -0.12 -0.26 -0.26 l0 -11.98 c0 -0.14 0.12 -0.26 0.26 -0.26 l2.6 0 c0.14 0 0.26 0.12 0.26 0.26 l0 9.36 l4.5 0 c0.14 0 0.26 0.12 0.26 0.26 l0 2.36 c0 0.14 -0.12 0.26 -0.26 0.26 l-7.36 0 z M115.04 20 c-0.16 0 -0.26 -0.12 -0.26 -0.26 l0 -11.98 c0 -0.14 0.1 -0.26 0.26 -0.26 l4.54 0 c1.2 0 2.3 0.26 3.26 0.8 c0.96 0.52 1.7 1.26 2.24 2.22 c0.52 0.94 0.8 2.02 0.8 3.22 c0 1.22 -0.28 2.3 -0.82 3.24 c-0.54 0.96 -1.3 1.7 -2.28 2.22 c-0.96 0.54 -2.08 0.8 -3.3 0.8 l-4.44 0 z M117.88 17.2 l1.76 0 c0.58 0 1.12 -0.14 1.58 -0.42 c0.46 -0.3 0.84 -0.7 1.1 -1.22 s0.4 -1.12 0.4 -1.8 c0 -0.66 -0.14 -1.28 -0.42 -1.8 c-0.28 -0.54 -0.66 -0.94 -1.14 -1.24 c-0.48 -0.28 -1.04 -0.44 -1.64 -0.44 l-1.64 0 l0 6.92 z M127.88 20 l0 -11.98 c0 -0.5 0.1 -0.6 0.26 -0.6 l8.76 0 c0.14 0 0.26 0.1 0.26 0.24 l0 2.26 c0 0.14 -0.12 0.26 -0.26 0.26 l-5.92 0 l0 2.08 l3.74 0 c0.14 0 0.26 0.12 0.26 0.26 l0 2.24 c0 0.14 -0.12 0.26 -0.26 0.26 l-3.74 0 l0 2.14 l5.9 0 c0.14 0 0.26 0.12 0.26 0.26 l0 2.24 c0 0.14 -0.12 0.26 -0.26 0.26 l-8.74 0 c-0.16 0 -0.26 -0.12 -0.26 0.08 z M139.42 20 c-0.14 0 -0.26 -0.12 -0.26 -0.26 l0 -11.98 c0 -0.14 0.12 -0.26 0.26 -0.26 l2.6 0 c0.14 0 0.26 0.12 0.26 0.26 l0 9.36 l4.5 0 c0.14 0 0.26 0.12 0.26 0.26 l0 2.36 c0 0.14 -0.12 0.26 -0.26 0.26 l-7.36 0 z M149.29999999999998 20 c-0.14 0 -0.26 -0.12 -0.26 -0.26 l0 -11.98 c0 -0.14 0.12 -0.26 0.26 -0.26 l2.6 0 c0.14 0 0.26 0.12 0.26 0.26 l0 11.98 c0 0.14 -0.12 0.26 -0.26 0.26 l-2.6 0 z M158.42 20 c-0.1 0 -0.2 -0.06 -0.24 -0.16 l-4 -12 c-0.04 -0.08 -0.02 -0.16 0.02 -0.24 c0.06 -0.06 0.14 -0.1 0.22 -0.1 l2.8 0 c0.1 0 0.2 0.06 0.24 0.18 l2.38 7.82 l2.4 -7.82 c0.04 -0.12 0.14 -0.18 0.24 -0.18 l2.68 0 c0.08 0 0.16 0.04 0.22 0.1 c0.04 0.08 0.06 0.16 0.02 0.24 l-4.06 12 c-0.04 0.1 -0.12 0.16 -0.24 0.16 l-2.68 0 z M167.42 20 l0 -11.98 c0 -0.5 0.1 -0.6 0.26 -0.6 l8.76 0 c0.14 0 0.26 0.1 0.26 0.24 l0 2.26 c0 0.14 -0.12 0.26 -0.26 0.26 l-5.92 0 l0 2.08 l3.74 0 c0.14 0 0.26 0.12 0.26 0.26 l0 2.24 c0 0.14 -0.12 0.26 -0.26 0.26 l-3.74 0 l0 2.14 l5.9 0 c0.14 0 0.26 0.12 0.26 0.26 l0 2.24 c0 0.14 -0.12 0.26 -0.26 0.26 l-8.74 0 c-0.16 0 -0.26 -0.12 -0.26 0.08 z M178.95999999999998 20 c-0.16 0 -0.26 -0.12 -0.26 -0.26 l0 -11.98 c0 -0.14 0.1 -0.26 0.26 -0.26 l4.88 0 c1.52 0 2.72 0.38 3.56 1.16 c1.24 1.12 1.66 3.24 1.06 4.8 c-0.22 0.56 -0.6 1.08 -1.08 1.46 c-0.28 0.22 -0.58 0.38 -0.88 0.54 c0.86 1.36 2.16 4.12 2.16 4.12 c0.02 0.04 0.06 0.1 0.06 0.16 c0 0.14 -0.12 0.26 -0.26 0.26 l-2.96 0 c-0.08 0 -0.18 -0.06 -0.22 -0.14 l-1.74 -3.82 c-0.62 0.04 -1.1 0.02 -1.74 0.02 l0 3.68 c0 0.14 -0.12 0.26 -0.26 0.26 l-2.58 0 z M181.79999999999998 13.280000000000001 c0 0 2.52 0.28 3.4 -0.3 c0.34 -0.22 0.54 -0.76 0.54 -1.16 c-0.02 -0.44 -0.24 -0.9 -0.6 -1.18 c-0.38 -0.32 -1.32 -0.42 -1.8 -0.42 l-1.54 0.04 l0 3.02 z M190.99999999999997 20 c-0.14 0 -0.26 -0.12 -0.26 -0.26 l0 -11.98 c0 -0.14 0.12 -0.26 0.26 -0.26 l2.6 0 c0.14 0 0.26 0.12 0.26 0.26 l0 11.98 c0 0.14 -0.12 0.26 -0.26 0.26 l-2.6 0 z M195.85999999999999 20 l0 -11.98 c0 -0.5 0.1 -0.6 0.26 -0.6 l8.76 0 c0.14 0 0.26 0.1 0.26 0.24 l0 2.26 c0 0.14 -0.12 0.26 -0.26 0.26 l-5.92 0 l0 2.08 l3.74 0 c0.14 0 0.26 0.12 0.26 0.26 l0 2.24 c0 0.14 -0.12 0.26 -0.26 0.26 l-3.74 0 l0 2.14 l5.9 0 c0.14 0 0.26 0.12 0.26 0.26 l0 2.24 c0 0.14 -0.12 0.26 -0.26 0.26 l-8.74 0 c-0.16 0 -0.26 -0.12 -0.26 0.08 z M212.48 20.12 c-0.96 0 -1.92 -0.18 -2.84 -0.54 c-0.92 -0.34 -1.74 -0.84 -2.42 -1.44 c-0.08 -0.08 -0.1 -0.2 -0.06 -0.3 l0.7 -2.38 c0.04 -0.08 0.1 -0.14 0.18 -0.14 c0.08 -0.02 0.16 0 0.22 0.06 c1.06 1 2.26 1.9 3.76 1.98 c0.4 0.02 0.84 0.04 1.22 -0.08 c1.18 -0.38 0.68 -1.58 -0.2 -1.94 c-0.3 -0.12 -0.72 -0.26 -1.26 -0.42 c-0.8 -0.22 -1.46 -0.46 -1.96 -0.7 c-0.54 -0.24 -1 -0.62 -1.4 -1.12 c-0.38 -0.52 -0.58 -1.2 -0.58 -2.02 c0 -0.78 0.2 -1.46 0.6 -2.04 s0.96 -1.04 1.66 -1.34 s1.52 -0.46 2.44 -0.46 c0.82 0 1.62 0.12 2.42 0.38 c0.78 0.24 1.48 0.58 2.1 0.98 c0.1 0.08 0.14 0.2 0.08 0.32 l-0.66 2.24 c-0.02 0.08 -0.08 0.12 -0.16 0.14 c-0.06 0.02 -0.14 0.02 -0.2 -0.02 c-0.9 -0.56 -1.8 -1.24 -2.86 -1.38 c-0.7 -0.1 -1.76 -0.06 -2 0.78 c-0.3 1.08 1.28 1.36 2 1.58 c0.8 0.24 1.46 0.48 1.98 0.72 c0.54 0.26 1.02 0.66 1.4 1.16 c0.4 0.52 0.6 1.22 0.6 2.06 c0 0.82 -0.22 1.52 -0.64 2.12 c-0.4 0.6 -0.98 1.04 -1.7 1.36 c-0.72 0.28 -1.52 0.44 -2.42 0.44 z"></path></g>
			</g>
		</svg>
	
